<?xml version="1.0" standalone="no"?>
<!DOCTYPE svg PUBLIC "-//W3C//DTD SVG 20010904//EN"
 "http://www.w3.org/TR/2001/REC-SVG-20010904/DTD/svg10.dtd">
<svg version="1.0" xmlns="http://www.w3.org/2000/svg"
 width="490.000000pt" height="524.000000pt" viewBox="0 0 490.000000 524.000000"
 preserveAspectRatio="xMidYMid meet">
<metadata>
Created by potrace 1.16, written by Peter Selinger 2001-2019
</metadata>
<g transform="translate(0.000000,524.000000) scale(0.100000,-0.100000)"
fill="#000000" stroke="none">
<path d="M186 5031 l6 -54 -40 5 c-36 5 -39 4 -34 -14 3 -11 15 -31 28 -44 13
-12 24 -32 24 -43 0 -28 58 -172 77 -193 9 -10 21 -18 28 -18 6 0 36 -24 66
-53 143 -138 375 -203 944 -263 33 -3 79 -15 102 -25 47 -21 63 -24 63 -9 0 6
-9 10 -21 10 -11 0 -17 4 -14 10 6 10 63 3 81 -11 11 -9 137 -54 196 -71 45
-12 157 -135 194 -213 13 -27 29 -58 36 -67 10 -14 9 -20 -4 -35 -8 -10 -19
-28 -23 -41 -6 -22 -8 -22 -30 -8 -30 20 -39 2 -17 -36 17 -30 52 -45 52 -22
0 12 4 12 20 2 27 -17 40 1 13 19 -26 18 -30 38 -8 47 18 7 35 -23 35 -63 0
-23 9 -37 35 -57 45 -34 55 -52 67 -123 13 -78 12 -116 -6 -148 -42 -75 -62
-182 -37 -197 11 -7 38 33 46 70 4 16 16 48 26 72 26 58 37 146 28 231 -8 75
-28 115 -74 145 -13 9 -34 35 -45 59 -17 35 -19 46 -9 64 15 28 14 29 -69 162
-105 166 -227 234 -487 272 -44 6 -91 13 -105 15 -14 3 -90 11 -170 19 -80 9
-165 19 -190 25 -25 5 -67 12 -95 15 -92 12 -261 64 -342 104 -53 27 -101 62
-144 104 -35 35 -71 66 -80 69 -22 8 -82 165 -99 260 -13 73 -32 96 -24 29z"/>
<path d="M3389 4266 c-4 -4 -42 -12 -71 -15 -5 -1 -8 -7 -8 -14 0 -9 20 -11
80 -9 244 12 505 -195 572 -453 14 -56 28 -75 54 -75 14 0 15 -6 10 -42 -4
-24 -9 -84 -11 -133 l-4 -91 36 4 36 4 -28 -50 c-15 -28 -24 -55 -21 -61 8
-12 68 -13 106 -1 l25 7 -28 12 c-16 6 -33 11 -38 11 -13 0 -11 12 7 49 18 35
9 55 -28 67 -20 6 -20 12 -15 117 l5 111 -29 27 c-16 15 -32 42 -36 61 -18 89
-102 228 -186 305 -88 81 -198 139 -302 159 -71 14 -118 18 -126 10z"/>
<path d="M2695 4190 c-3 -5 3 -20 14 -31 l20 -22 -25 -48 c-14 -26 -26 -60
-26 -75 0 -16 -7 -91 -16 -167 -10 -99 -12 -145 -4 -160 6 -12 13 -35 17 -50
3 -16 11 -27 18 -24 11 4 12 16 5 117 -1 19 1 58 4 85 4 28 10 91 14 140 4 60
13 100 25 121 23 38 24 87 3 108 -18 18 -40 21 -49 6z"/>
<path d="M1935 3682 c-6 -4 -11 -40 -12 -81 -1 -57 -6 -78 -21 -95 -25 -27
-33 -71 -16 -93 16 -21 19 -103 4 -103 -5 0 -10 -11 -10 -24 0 -13 -6 -26 -12
-29 -9 -3 -7 -7 5 -12 13 -5 25 -1 40 14 19 19 23 36 27 129 4 81 10 115 23
136 15 22 17 38 12 81 -8 58 -24 89 -40 77z"/>
<path d="M2650 3208 c0 -14 29 -51 83 -105 45 -45 90 -94 100 -107 24 -35 241
-176 269 -176 12 0 58 -18 101 -41 57 -30 87 -40 106 -36 22 5 48 -8 132 -65
57 -39 109 -77 115 -86 6 -8 48 -33 95 -56 70 -34 88 -48 111 -86 50 -82 77
-145 80 -185 l3 -40 48 2 c35 1 47 -2 47 -14 0 -8 11 -29 25 -47 14 -18 25
-39 25 -45 0 -7 29 -45 64 -85 44 -50 65 -82 70 -108 4 -24 3 -38 -4 -38 -16
0 -12 -23 10 -50 24 -31 25 -48 4 -72 -15 -15 -15 -28 -7 -90 6 -42 6 -74 1
-76 -4 -2 -6 -26 -2 -53 4 -29 2 -54 -4 -61 -6 -7 -22 -55 -37 -107 -32 -114
-70 -192 -124 -251 -55 -59 -57 -81 -4 -37 87 72 140 160 167 281 9 38 23 83
30 100 18 38 24 150 12 234 -7 58 -6 65 13 84 21 18 21 21 7 44 -9 13 -16 38
-16 56 0 58 -18 102 -64 154 -43 49 -88 116 -123 181 -16 32 -66 59 -86 46 -6
-4 -8 2 -5 15 4 14 -3 35 -18 57 -13 20 -24 38 -24 41 0 2 -18 33 -40 68 -36
57 -49 68 -121 106 -44 23 -94 54 -112 69 -30 25 -97 74 -176 128 -20 14 -49
23 -71 23 -23 0 -66 15 -116 40 -43 22 -86 40 -95 40 -9 0 -32 10 -50 23 -19
13 -57 36 -85 51 -32 17 -102 80 -183 162 -72 74 -136 134 -141 134 -6 0 -10
-10 -10 -22z"/>
<path d="M460 2897 c0 -31 23 -67 61 -92 20 -15 40 -33 43 -41 3 -8 17 -14 31
-14 15 0 35 -5 47 -11 18 -10 19 -17 14 -63 l-7 -53 45 -13 c24 -7 50 -9 56
-5 23 14 104 -87 122 -151 5 -19 41 -71 79 -116 39 -45 77 -95 86 -112 8 -17
25 -41 37 -54 15 -17 21 -36 20 -67 0 -25 3 -42 8 -39 4 3 8 0 8 -7 0 -6 8 -9
19 -6 18 4 19 -2 19 -102 0 -58 5 -122 11 -141 14 -44 14 -130 1 -130 -15 0
-12 -44 5 -66 19 -25 19 -43 -2 -66 -16 -17 -16 -23 1 -86 9 -37 17 -77 17
-89 -1 -12 4 -35 10 -50 6 -15 12 -60 14 -98 3 -77 36 -188 86 -288 50 -102
142 -237 161 -237 9 0 25 -14 35 -30 9 -17 25 -33 35 -36 10 -3 18 -14 18 -24
0 -18 123 -110 147 -110 6 0 28 -16 48 -36 30 -29 43 -35 72 -32 46 4 53 22
14 38 -16 6 -37 20 -46 30 -9 10 -42 31 -72 46 -50 24 -173 135 -173 155 0 4
-14 16 -30 26 -32 18 -118 140 -162 228 -47 93 -79 197 -88 289 -11 111 -24
183 -46 248 -12 38 -13 52 -4 63 16 19 39 19 46 0 9 -21 34 -19 34 4 0 21 -27
48 -37 37 -4 -4 -15 8 -24 26 -13 25 -14 39 -7 61 11 29 7 90 -12 187 -5 30
-7 83 -3 118 5 53 3 68 -13 90 -11 15 -28 45 -39 67 -11 22 -26 46 -34 54 -8
9 -20 29 -27 46 -7 18 -30 47 -51 66 -61 56 -103 115 -125 176 -36 104 -92
163 -155 163 -38 0 -43 3 -44 23 -1 12 -1 26 0 31 7 34 -55 96 -95 96 -6 0
-92 62 -136 99 -16 12 -18 12 -18 -2z"/>
<path d="M1925 551 c-3 -6 8 -20 25 -33 28 -20 29 -24 14 -35 -11 -8 -24 -9
-41 -2 -35 13 -65 11 -60 -3 2 -7 8 -13 13 -14 5 0 16 -4 24 -7 8 -3 31 -8 50
-9 23 -2 35 -8 35 -18 0 -22 84 -60 157 -70 34 -5 100 -22 146 -37 63 -21 86
-25 100 -17 13 9 33 5 87 -18 39 -16 90 -31 115 -35 48 -6 89 -22 60 -23 -28
-1 12 -20 43 -20 69 0 -9 69 -103 90 -30 7 -74 22 -97 32 -25 11 -61 18 -85
17 -24 -1 -81 9 -128 24 -47 14 -112 30 -145 36 -77 14 -107 37 -119 89 -7 27
-17 44 -33 51 -29 14 -50 14 -58 2z"/>
</g>
</svg>
