<?xml version="1.0" encoding="utf-8"?>
<!-- Generator: Adobe Illustrator 24.0.1, SVG Export Plug-In . SVG Version: 6.00 Build 0)  -->
<svg version="1.1" id="Camada_1" xmlns="http://www.w3.org/2000/svg" xmlns:xlink="http://www.w3.org/1999/xlink" x="0px" y="0px"
	 viewBox="0 0 400 500" style="enable-background:new 0 0 400 500;" xml:space="preserve">
<style type="text/css">
	.st0{fill:#A8C415;}
	.st1{fill:#262626;}
</style>
<g>
	<path class="st0" d="M301.93,196.42c-0.51-6.88-1.08-13.76-1.62-20.64c-0.17-2.16-2.96-3.75-4.61-1.87
		c-3.12,3.54-8.13,1.16-11.16-1.22c-3.76-2.94-6.99-6.29-11.23-8.58c-7.81-4.22-16.96-5.66-25.72-4.44
		c-17.85,2.49-32.05,16.33-37.55,33.14c-1.55,4.75-2.37,9.71-2.54,14.69c-2.8-7.01-7.16-13.44-12.73-18.51
		c-7.22-6.57-16.16-10.7-25.28-13.93c-10.22-3.62-20.71-6.54-31.08-9.72c-9.79-3-21-5.31-29.01-12.1
		c-3.47-2.94-6.19-6.54-7.47-10.94c-0.79-2.72-4.42-2.24-5.17-0.13c-0.12,0.22-0.21,0.48-0.27,0.77
		c-2.79,13.66,3.06,27.43,12.66,37.09c10.43,10.49,24.67,16.07,38.51,20.49c9.21,2.94,19.89,6.58,26.27,14.41
		c8.08,9.93,4.09,24.55-4.25,33.04c-7.44,7.58-18.81,7.09-28.56,6.18c-10.62-1-21.53-1.83-30.48-8.31
		c-1.17-0.85-2.29-1.78-3.33-2.78c-1.58-1.53-4.77-0.47-4.58,1.94c0.64,8.35,5.8,14.96,11.77,20.45
		c5.99,5.5,13.54,10.41,16.88,18.14c1.88,4.36,1.79,9.17,1.76,13.83c-0.03,4.89-0.06,9.78,0.21,14.67
		c0.47,8.59,1.66,17.53,5.88,25.17c7.13,12.91,21.11,20.15,34.73,24.3c12.41,3.79,25.63,5.42,38.59,4.63
		c10.51-0.63,21.12-2.85,30.67-7.38c3.66-1.71,9.04-4.52,13.95-8.29c0.83-0.62,1.62-1.27,2.38-1.94c0,0,0.01-0.01,0.01-0.01
		c0.27-0.23,0.53-0.47,0.79-0.71c0.02-0.02,0.03-0.03,0.05-0.05l0,0c4.75-4.38,8.18-9.43,10.43-13.38c1.27-2.09,2.33-4.27,3.19-6.5
		c0.03-0.08,0.05-0.14,0.07-0.18c0.01-0.03,0.02-0.05,0.03-0.08c0-0.01,0.01-0.02,0.01-0.02l0,0c3.72-9.89,3.76-20.73,2.99-28.64
		c-0.09-5.92-1.52-12.38-3.64-18.79c-0.84-2.76-1.94-5.62-3.2-8.49c-3.3-7.87-7.25-15.23-10.57-20.92l0.06,0.01
		c-0.12-0.16-0.24-0.34-0.36-0.51c-0.05-0.08-0.1-0.16-0.14-0.25h0c0,0,0,0,0,0c-0.94-1.59-1.82-3.03-2.61-4.31
		c-4.73-8.6-9.65-20.97-9.66-21.01c-2.07-6.31-2.89-10.7-2.94-11c-0.23-1.67-0.38-3.23-0.46-4.69c0-0.06-0.01-0.11-0.01-0.17
		c-0.01-0.29-0.03-0.57-0.03-0.85c0-0.12-0.01-0.24-0.01-0.35c-0.01-0.23-0.01-0.47-0.01-0.69c0-0.12,0-0.24,0-0.35
		c0-0.29,0-0.57,0.01-0.85c0-0.02,0-0.05,0-0.07c0.38-16.64,11.2-17.02,13.59-16.9c0.16,0.01,0.31,0.02,0.46,0.04c0,0,0,0,0,0l0,0
		c11.69,1.07,18.23,9.79,21.7,17.08l0,0c0.34,0.71,0.65,1.41,0.93,2.09c1.29,3.24,3.24,9.75,1.3,15.92
		c-0.77,2.24-1.9,4.33-3.36,6.27c-1.29,1.71,0.51,4.03,2.35,4.04c11.02,0.07,18.84-9.72,20.91-19.77
		C302.64,208.53,302.38,202.43,301.93,196.42z M202.77,337.96c-17.42,0.45-33.69-13.59-35.46-30.98
		c-0.86-8.48,1.13-17.15,5.61-24.41c5.27-8.54,14.12-12.79,21.42-19.26c9.68-8.58,15.5-20.85,16.52-33.55
		c2.49,7.14,6.23,13.76,10.56,20.02c1.86,2.69,3.9,5.45,5.98,8.29c8.2,12.35,21.06,36,13.28,53.53
		C233.59,325.82,218.71,337.55,202.77,337.96z"/>
	<g>
		<g>
			<path class="st1" d="M172.86,72.49c-0.17-1.41,0.18-2.67,1.05-3.78c0.88-1.11,2.02-1.75,3.43-1.92c1.4-0.17,2.65,0.18,3.77,1.05
				c1.11,0.87,1.76,2,1.93,3.4c0.17,1.4-0.18,2.66-1.06,3.79c-0.88,1.13-2.02,1.77-3.42,1.95c-1.41,0.17-2.67-0.18-3.78-1.05
				C173.67,75.04,173.03,73.9,172.86,72.49z"/>
			<path class="st1" d="M217.45,59.77l4.98,0.63c3.61,0.46,6.05,1.28,7.32,2.45c1.27,1.17,1.76,2.94,1.46,5.28
				c-0.19,1.52-0.75,2.72-1.67,3.59c-0.92,0.87-2.17,1.38-3.76,1.53c0.75,0.24,1.32,0.62,1.7,1.17c0.38,0.54,0.71,1.52,0.99,2.93
				l1.77,8.85l-4.6-0.59l-1.32-7.6c-0.24-1.36-0.55-2.26-0.96-2.71c-0.4-0.45-1.08-0.73-2.03-0.85l-1.34-0.17l-1.33,10.44
				l-4.31-0.55L217.45,59.77z M221.34,63.68l-0.92,7.22l1.24,0.16c1.74,0.22,2.99,0.08,3.76-0.41c0.77-0.5,1.24-1.45,1.42-2.86
				c0.15-1.21-0.07-2.12-0.68-2.71c-0.61-0.59-1.77-1-3.48-1.22L221.34,63.68z"/>
			<path class="st1" d="M245.9,64.57l12.22,3.44l-0.92,3.27l-7.95-2.24l-1.87,6.63l7.5,2.11l-0.92,3.27l-7.5-2.11l-2.04,7.23
				l8.32,2.34l-0.93,3.28l-12.58-3.55L245.9,64.57z"/>
			<path class="st1" d="M271.32,72.9l4.09,1.71l-9.48,22.71l-4.09-1.71L271.32,72.9z"/>
			<path class="st1" d="M288.87,80.85l4.43,2.61l-2.43,20.71l9.67-16.45l3.33,1.96l-12.47,21.21l-4.49-2.64l2.45-20.61l-9.64,16.39
				l-3.33-1.96L288.87,80.85z"/>
			<path class="st1" d="M320.52,102.07l3.91,3.28l-9.91,23.81l-3.55-2.98l2.58-5.61l-6.58-5.52l-5.13,3.47l-3.34-2.81L320.52,102.07
				z M319.8,106.73l-9.77,6.33l5.03,4.22L319.8,106.73z"/>
			<path class="st1" d="M338.94,119.22l2.95,3.31l-15.68,13.95l5.34,6l-2.7,2.41l-8.29-9.31L338.94,119.22z"/>
			<path class="st1" d="M355.02,138.6l2.86,4.4c2.35,3.61,3.25,6.83,2.69,9.65c-0.56,2.83-2.58,5.38-6.09,7.66
				c-3.35,2.18-6.5,2.94-9.45,2.27c-2.95-0.67-5.54-2.72-7.78-6.15l-2.86-4.4L355.02,138.6z M354.59,144.17l-14.92,9.72l0.46,0.71
				c1.38,2.12,3.09,3.33,5.13,3.64c2.04,0.31,4.25-0.32,6.64-1.88c2.52-1.64,4.05-3.4,4.59-5.25c0.53-1.86,0.09-3.88-1.34-6.08
				L354.59,144.17z"/>
			<path class="st1" d="M375.37,174.24c1.23,2.85,1.16,5.5-0.21,7.95c-1.36,2.44-3.89,4.46-7.6,6.05c-3.7,1.59-6.9,2.04-9.6,1.34
				c-2.7-0.7-4.66-2.48-5.89-5.33c-1.23-2.85-1.17-5.5,0.18-7.94c1.35-2.44,3.88-4.45,7.59-6.05c3.7-1.59,6.91-2.04,9.62-1.34
				C372.17,169.61,374.14,171.38,375.37,174.24z M372.23,175.58c-0.65-1.51-1.87-2.35-3.67-2.52c-1.8-0.17-4.09,0.33-6.86,1.52
				c-2.77,1.19-4.71,2.49-5.82,3.91c-1.11,1.42-1.34,2.89-0.69,4.41c0.65,1.52,1.87,2.36,3.67,2.53c1.79,0.17,4.08-0.34,6.85-1.53
				c2.76-1.18,4.7-2.49,5.82-3.92C372.64,178.56,372.88,177.09,372.23,175.58z"/>
			<path class="st1" d="M388.62,225.74l-3.75,0.37c0.21-0.85,0.34-1.64,0.4-2.38c0.06-0.73,0.04-1.41-0.05-2.02
				c-0.18-1.15-0.56-2-1.15-2.54c-0.59-0.54-1.34-0.74-2.25-0.6c-0.67,0.1-1.25,0.42-1.73,0.96c-0.48,0.54-1.09,1.67-1.84,3.41
				l-0.17,0.39c-1.65,3.76-3.74,5.84-6.29,6.23c-2.19,0.34-4.07-0.11-5.65-1.36c-1.58-1.25-2.55-3.06-2.92-5.42
				c-0.15-0.97-0.2-1.95-0.14-2.93c0.06-0.98,0.21-1.9,0.45-2.76l3.8-0.26c-0.35,0.93-0.57,1.83-0.69,2.69
				c-0.11,0.86-0.1,1.7,0.02,2.51c0.18,1.15,0.6,2.02,1.27,2.61c0.67,0.59,1.48,0.8,2.42,0.66c1.48-0.23,2.8-1.71,3.95-4.43
				c0.17-0.4,0.3-0.7,0.39-0.9c0.88-2.02,1.76-3.44,2.64-4.27c0.88-0.83,2-1.35,3.36-1.56c2.05-0.32,3.8,0.12,5.23,1.33
				c1.43,1.2,2.33,3,2.7,5.38c0.12,0.79,0.18,1.59,0.17,2.42C388.82,224.11,388.75,224.92,388.62,225.74z"/>
			<path class="st1" d="M390.34,245.84l0.08,5.11l-24.48,8.12l-0.08-4.64l5.93-1.72l-0.14-8.59l-5.98-1.6l-0.07-4.36L390.34,245.84z
				 M386.35,248.35l-11.19-3.23l0.11,6.56L386.35,248.35z"/>
			<path class="st1" d="M389.29,271.75l-0.83,5.08l-20.19,5.22l18.83,3.07l-0.62,3.81l-24.29-3.96l0.84-5.14l20.11-5.16l-18.77-3.06
				l0.62-3.81L389.29,271.75z"/>
			<path class="st1" d="M383.26,301.8l-4.83,14.65l-3.36-1.11l1.73-5.23l-20.01-6.6l1.4-4.24l20.01,6.6l1.71-5.18L383.26,301.8z"/>
			<path class="st1" d="M369.77,336.58c-1.42,2.76-3.51,4.4-6.26,4.9c-2.75,0.51-5.92-0.16-9.5-2c-3.58-1.84-5.96-4.03-7.14-6.55
				c-1.18-2.53-1.06-5.17,0.36-7.93c1.42-2.76,3.5-4.4,6.24-4.91c2.74-0.51,5.9,0.15,9.5,2c3.58,1.84,5.97,4.03,7.16,6.56
				C371.3,331.17,371.19,333.82,369.77,336.58z M366.73,335.02c0.75-1.46,0.62-2.94-0.4-4.44c-1.01-1.5-2.86-2.94-5.54-4.32
				c-2.68-1.38-4.92-2.04-6.72-2c-1.8,0.05-3.08,0.8-3.84,2.27c-0.75,1.47-0.63,2.95,0.38,4.44c1.01,1.49,2.86,2.93,5.54,4.31
				c2.67,1.37,4.91,2.04,6.73,1.99C364.7,337.23,365.98,336.48,366.73,335.02z"/>
			<path class="st1" d="M350.16,366.03l-2.91-2.38c0.75-0.46,1.4-0.92,1.96-1.4c0.56-0.48,1.03-0.97,1.39-1.47
				c0.69-0.94,1.02-1.81,0.98-2.61c-0.03-0.8-0.42-1.47-1.17-2.01c-0.55-0.4-1.18-0.58-1.9-0.54c-0.72,0.04-1.95,0.41-3.71,1.12
				l-0.4,0.16c-3.82,1.5-6.77,1.49-8.85-0.03c-1.79-1.31-2.8-2.96-3.03-4.96c-0.23-2,0.35-3.97,1.76-5.9
				c0.58-0.79,1.24-1.52,1.97-2.17c0.74-0.66,1.49-1.2,2.27-1.64l2.87,2.5c-0.9,0.41-1.7,0.89-2.39,1.42
				c-0.69,0.53-1.28,1.13-1.76,1.79c-0.69,0.94-1,1.86-0.94,2.74c0.06,0.89,0.48,1.61,1.25,2.18c1.21,0.89,3.19,0.77,5.93-0.34
				c0.4-0.16,0.71-0.28,0.91-0.36c2.05-0.81,3.67-1.19,4.88-1.15s2.37,0.46,3.48,1.27c1.68,1.23,2.6,2.77,2.76,4.63
				c0.16,1.86-0.47,3.77-1.89,5.72c-0.47,0.64-1,1.25-1.59,1.83C351.45,365.02,350.82,365.55,350.16,366.03z"/>
			<path class="st1" d="M318.63,383.56c0.91,1.09,1.3,2.34,1.16,3.74c-0.13,1.41-0.75,2.56-1.84,3.47c-1.08,0.9-2.32,1.29-3.73,1.17
				c-1.41-0.13-2.56-0.73-3.46-1.81c-0.9-1.08-1.29-2.33-1.16-3.76c0.13-1.42,0.73-2.59,1.81-3.49c1.09-0.91,2.34-1.3,3.74-1.16
				C316.56,381.86,317.72,382.47,318.63,383.56z"/>
			<path class="st1" d="M288.07,418.4l-5.04,2.42c-2.77,1.33-5.06,1.76-6.89,1.3c-1.82-0.46-3.29-1.84-4.39-4.14
				c-1.1-2.3-1.28-4.31-0.52-6.04c0.76-1.73,2.48-3.24,5.17-4.53l1.2-0.58l-4.17-8.7l4-1.92L288.07,418.4z M282.6,417.26l-3.53-7.35
				l-1.53,0.73c-1.3,0.62-2.09,1.36-2.36,2.2c-0.27,0.84-0.09,1.94,0.56,3.29c0.62,1.3,1.35,2.09,2.19,2.36
				c0.83,0.27,1.97,0.06,3.41-0.63L282.6,417.26z"/>
			<path class="st1" d="M262.55,429.42l-12.12,3.78l-1.01-3.24l7.89-2.46l-2.05-6.58l-7.44,2.32L246.8,420l7.44-2.32L252,410.5
				l-8.25,2.57l-1.02-3.26l12.48-3.89L262.55,429.42z"/>
			<path class="st1" d="M236.22,436.51l-4.96,0.77c-3.59,0.56-6.16,0.45-7.71-0.33c-1.55-0.78-2.5-2.33-2.86-4.67
				c-0.24-1.52-0.03-2.82,0.61-3.91c0.64-1.09,1.71-1.93,3.19-2.51c-0.79-0.02-1.44-0.24-1.96-0.65c-0.52-0.42-1.11-1.26-1.76-2.54
				l-4.15-8.01l4.59-0.71l3.37,6.94c0.6,1.24,1.16,2.02,1.67,2.33c0.51,0.32,1.24,0.4,2.19,0.26l1.33-0.21l-1.62-10.4l4.3-0.67
				L236.22,436.51z M231.4,433.83l-1.12-7.19l-1.23,0.19c-1.73,0.27-2.9,0.75-3.5,1.44c-0.6,0.69-0.79,1.73-0.57,3.14
				c0.19,1.21,0.65,2.02,1.4,2.42c0.75,0.4,1.97,0.47,3.69,0.21L231.4,433.83z"/>
			<path class="st1" d="M196.18,439.53l0.15-3.76c0.81,0.32,1.58,0.56,2.3,0.72c0.72,0.16,1.39,0.24,2.01,0.23
				c1.17-0.02,2.06-0.28,2.67-0.79c0.61-0.51,0.92-1.22,0.9-2.14c-0.01-0.68-0.25-1.29-0.71-1.84c-0.46-0.55-1.51-1.31-3.13-2.29
				l-0.37-0.22c-3.5-2.15-5.27-4.51-5.31-7.08c-0.04-2.22,0.67-4.02,2.13-5.41c1.46-1.39,3.38-2.11,5.77-2.15
				c0.98-0.02,1.96,0.07,2.92,0.26c0.97,0.19,1.86,0.47,2.67,0.82l-0.27,3.8c-0.87-0.47-1.73-0.82-2.57-1.05
				c-0.84-0.23-1.67-0.34-2.49-0.32c-1.17,0.02-2.08,0.32-2.76,0.9c-0.67,0.58-1,1.35-0.98,2.31c0.02,1.5,1.31,3.01,3.85,4.53
				c0.37,0.22,0.65,0.39,0.84,0.51c1.88,1.15,3.17,2.21,3.86,3.2c0.7,0.99,1.06,2.17,1.08,3.54c0.03,2.08-0.64,3.74-2.03,5
				c-1.39,1.25-3.29,1.9-5.7,1.94c-0.8,0.01-1.6-0.04-2.42-0.16C197.77,439.95,196.97,439.77,196.18,439.53z"/>
			<path class="st1" d="M172.15,438.2c-3.07-0.45-5.29-1.9-6.66-4.34c-1.37-2.44-1.76-5.66-1.18-9.64s1.88-6.95,3.89-8.88
				c2.01-1.93,4.55-2.68,7.62-2.23c3.07,0.45,5.29,1.89,6.67,4.31c1.37,2.42,1.76,5.63,1.18,9.63c-0.58,3.99-1.88,6.95-3.89,8.9
				C177.77,437.9,175.22,438.65,172.15,438.2z M172.65,434.83c1.62,0.24,2.98-0.37,4.07-1.81c1.09-1.44,1.86-3.66,2.29-6.64
				s0.34-5.32-0.29-7.01c-0.63-1.69-1.76-2.66-3.39-2.89c-1.63-0.24-2.99,0.36-4.08,1.8c-1.09,1.44-1.85,3.65-2.28,6.63
				c-0.44,2.97-0.34,5.31,0.29,7.01C169.9,433.62,171.02,434.59,172.65,434.83z"/>
			<path class="st1" d="M148.5,432.97l-4.88-1.61l-1.99-20.76l-5.99,18.12l-3.67-1.21l7.72-23.37l4.95,1.64l1.94,20.67l5.97-18.05
				l3.67,1.21L148.5,432.97z"/>
			<path class="st1" d="M113.09,418.88l-4.51-2.39l4.7-25.36l4.1,2.17l-1.35,6.03l7.59,4.02l4.29-4.47l3.86,2.04L113.09,418.88z
				 M112.82,414.17l8.23-8.24l-5.8-3.07L112.82,414.17z"/>
			<path class="st1" d="M91.46,405.93l-3.57-2.62l12.43-16.91l-6.48-4.76l2.14-2.92l10.05,7.38L91.46,405.93z"/>
			<path class="st1" d="M60.64,379.35l-10.06-11.7l2.68-2.3l3.59,4.18l15.98-13.74l2.91,3.39l-15.98,13.74l3.56,4.14L60.64,379.35z"
				/>
			<path class="st1" d="M42.85,357.11l-2.69-4.24c-1.95-3.07-2.87-5.47-2.78-7.2c0.09-1.73,1.14-3.22,3.14-4.49
				c1.3-0.82,2.57-1.16,3.83-1.01c1.26,0.15,2.45,0.79,3.58,1.92c-0.3-0.73-0.36-1.41-0.19-2.06c0.17-0.64,0.71-1.52,1.62-2.63
				l5.68-7.01l2.49,3.92l-5.01,5.87c-0.89,1.05-1.39,1.87-1.47,2.46c-0.09,0.6,0.13,1.3,0.64,2.11l0.72,1.14l8.89-5.64l2.33,3.67
				L42.85,357.11z M43.38,351.62l6.14-3.9l-0.67-1.05c-0.94-1.48-1.85-2.36-2.72-2.63c-0.87-0.27-1.91-0.03-3.11,0.73
				c-1.03,0.66-1.59,1.41-1.66,2.25c-0.07,0.85,0.36,2,1.28,3.46L43.38,351.62z"/>
			<path class="st1" d="M25.79,326.3l-2-4.7l19.61-16.76l1.82,4.27l-4.84,3.83l3.37,7.9l6.15-0.78l1.71,4.01L25.79,326.3z
				 M28.55,322.47l11.58-1.23l-2.57-6.04L28.55,322.47z"/>
			<path class="st1" d="M17.26,302.92l-1.19-4.27l23.7-6.62l1.19,4.27L17.26,302.92z"/>
			<path class="st1" d="M12.62,284.2l-0.7-5.1l17.76-10.92l-18.91,2.6l-0.53-3.83l24.38-3.35l0.71,5.16l-17.7,10.84l18.84-2.59
				l0.53,3.83L12.62,284.2z"/>
			<path class="st1" d="M9.58,251.73l0.25-12.69l3.39,0.07l-0.16,8.26l6.89,0.14l0.15-7.79l3.39,0.07l-0.15,7.79l7.51,0.15
				l0.17-8.64l3.41,0.07l-0.26,13.07L9.58,251.73z"/>
			<path class="st1" d="M11.15,224.54l0.83-4.95c0.6-3.59,1.51-5.99,2.74-7.21c1.22-1.22,3-1.64,5.34-1.25
				c1.51,0.25,2.69,0.86,3.52,1.81c0.83,0.95,1.29,2.23,1.38,3.82c0.26-0.74,0.68-1.29,1.23-1.65c0.56-0.36,1.55-0.65,2.96-0.87
				l8.91-1.42l-0.77,4.58l-7.65,1.02c-1.37,0.18-2.28,0.46-2.74,0.85c-0.46,0.39-0.77,1.05-0.93,1.99l-0.22,1.33l10.38,1.74
				l-0.72,4.29L11.15,224.54z M15.22,220.82l7.17,1.2l0.21-1.23c0.29-1.73,0.2-2.99-0.26-3.78c-0.47-0.79-1.4-1.3-2.8-1.53
				c-1.21-0.2-2.12-0.01-2.74,0.57c-0.62,0.58-1.07,1.73-1.36,3.43L15.22,220.82z"/>
			<path class="st1" d="M22.88,179.37l5.05-11.65l3.11,1.35l-3.29,7.58l6.32,2.74l3.1-7.15l3.11,1.35l-3.1,7.15l6.9,2.99l3.44-7.93
				l3.13,1.36l-5.2,12L22.88,179.37z"/>
			<path class="st1" d="M44.36,139.53l3.16-4.06l20.22,5.09l-15.06-11.72l2.37-3.05l19.42,15.11l-3.2,4.11l-20.12-5.1l15.01,11.67
				l-2.37,3.05L44.36,139.53z"/>
			<path class="st1" d="M65.47,114.55l3.27-2.99l10.67,11.67c1.41,1.54,2.64,2.43,3.68,2.66c1.04,0.23,2.08-0.13,3.12-1.08
				c1.04-0.95,1.49-1.95,1.35-3c-0.14-1.05-0.91-2.35-2.33-3.9l-10.67-11.67l3.12-2.85l10.33,11.3c2.23,2.44,3.37,4.69,3.43,6.75
				c0.06,2.07-0.95,4.05-3.02,5.94c-2.08,1.9-4.14,2.73-6.2,2.49c-2.05-0.24-4.19-1.58-6.42-4.02L65.47,114.55z"/>
			<path class="st1" d="M87.97,95.37l12.83-8.57l1.96,2.94l-4.58,3.06l11.71,17.52l-3.71,2.48L94.47,95.27l-4.54,3.03L87.97,95.37z"
				/>
			<path class="st1" d="M112.21,80.39l4.54-2.15c3.28-1.56,5.78-2.19,7.48-1.89c1.7,0.3,3.06,1.52,4.08,3.66
				c0.66,1.39,0.84,2.7,0.53,3.93c-0.3,1.23-1.09,2.34-2.34,3.32c0.76-0.21,1.45-0.19,2.06,0.06c0.62,0.25,1.42,0.89,2.41,1.93
				l6.27,6.49l-4.19,1.99l-5.21-5.69c-0.93-1.02-1.68-1.6-2.27-1.76c-0.58-0.16-1.3-0.03-2.17,0.38l-1.22,0.58l4.52,9.51l-3.93,1.87
				L112.21,80.39z M117.6,81.59l3.12,6.57l1.13-0.53c1.58-0.75,2.57-1.55,2.94-2.38c0.38-0.83,0.26-1.89-0.35-3.17
				c-0.53-1.11-1.2-1.75-2.03-1.92s-2.03,0.11-3.59,0.85L117.6,81.59z"/>
			<path class="st1" d="M138.38,69.3l4.21-1.39l7.69,23.37l-4.21,1.39L138.38,69.3z"/>
		</g>
	</g>
</g>
</svg>
