<?xml version="1.0" encoding="utf-8"?>
<!-- Generator: Adobe Illustrator 24.0.1, SVG Export Plug-In . SVG Version: 6.00 Build 0)  -->
<svg version="1.1" id="Camada_1" xmlns="http://www.w3.org/2000/svg" xmlns:xlink="http://www.w3.org/1999/xlink" x="0px" y="0px"
	 viewBox="0 0 80 80" style="enable-background:new 0 0 80 80;" xml:space="preserve">
<style type="text/css">
	.st0{fill:#A8C415;}
	.st1{fill:#262626;}
</style>
<g>
	<path class="st0" d="M58.83,30.1c-0.1-1.27-0.2-2.54-0.3-3.81c-0.03-0.4-0.55-0.69-0.85-0.35c-0.58,0.65-1.5,0.21-2.06-0.22
		c-0.69-0.54-1.29-1.16-2.08-1.59c-1.44-0.78-3.13-1.05-4.75-0.82c-3.3,0.46-5.92,3.02-6.94,6.12c-0.29,0.88-0.44,1.79-0.47,2.71
		c-0.52-1.3-1.32-2.48-2.35-3.42c-1.33-1.21-2.99-1.98-4.67-2.57c-1.89-0.67-3.83-1.21-5.74-1.8c-1.81-0.55-3.88-0.98-5.36-2.23
		c-0.64-0.54-1.14-1.21-1.38-2.02c-0.15-0.5-0.82-0.41-0.96-0.02c-0.02,0.04-0.04,0.09-0.05,0.14c-0.52,2.52,0.56,5.07,2.34,6.85
		c1.93,1.94,4.56,2.97,7.11,3.79c1.7,0.54,3.67,1.22,4.85,2.66c1.49,1.83,0.76,4.54-0.79,6.11c-1.38,1.4-3.48,1.31-5.28,1.14
		c-1.96-0.18-3.98-0.34-5.63-1.54c-0.22-0.16-0.42-0.33-0.62-0.51c-0.29-0.28-0.88-0.09-0.85,0.36c0.12,1.54,1.07,2.77,2.17,3.78
		c1.11,1.02,2.5,1.92,3.12,3.35c0.35,0.81,0.33,1.69,0.33,2.56c0,0.9-0.01,1.81,0.04,2.71c0.09,1.59,0.31,3.24,1.09,4.65
		c1.32,2.39,3.9,3.72,6.42,4.49c2.29,0.7,4.74,1,7.13,0.86c1.94-0.12,3.9-0.53,5.67-1.36c0.68-0.32,1.67-0.84,2.58-1.53
		c0.15-0.12,0.3-0.23,0.44-0.36c0,0,0,0,0,0c0.05-0.04,0.1-0.09,0.15-0.13c0,0,0.01-0.01,0.01-0.01l0,0
		c0.88-0.81,1.51-1.74,1.93-2.47c0.24-0.39,0.43-0.79,0.59-1.2c0.01-0.01,0.01-0.03,0.01-0.03c0,0,0-0.01,0.01-0.01c0,0,0,0,0,0l0,0
		c0.69-1.83,0.69-3.83,0.55-5.29c-0.02-1.09-0.28-2.29-0.67-3.47c-0.15-0.51-0.36-1.04-0.59-1.57c-0.61-1.45-1.34-2.81-1.95-3.86
		l0.01,0c-0.02-0.03-0.04-0.06-0.07-0.09c-0.01-0.02-0.02-0.03-0.03-0.05h0c0,0,0,0,0,0c-0.17-0.29-0.34-0.56-0.48-0.8
		c-0.87-1.59-1.78-3.88-1.79-3.88c-0.38-1.17-0.53-1.98-0.54-2.03c-0.04-0.31-0.07-0.6-0.08-0.87c0-0.01,0-0.02,0-0.03
		c0-0.05,0-0.1-0.01-0.16c0-0.02,0-0.04,0-0.07c0-0.04,0-0.09,0-0.13c0-0.02,0-0.04,0-0.06c0-0.05,0-0.11,0-0.16c0,0,0-0.01,0-0.01
		c0.07-3.07,2.07-3.14,2.51-3.12c0.03,0,0.06,0,0.09,0.01c0,0,0,0,0,0l0,0c2.16,0.2,3.37,1.81,4.01,3.16l0,0
		c0.06,0.13,0.12,0.26,0.17,0.39c0.24,0.6,0.6,1.8,0.24,2.94c-0.14,0.41-0.35,0.8-0.62,1.16c-0.24,0.32,0.1,0.74,0.43,0.75
		c2.04,0.01,3.48-1.8,3.86-3.65C58.96,32.34,58.92,31.21,58.83,30.1z M40.51,56.25c-3.22,0.08-6.23-2.51-6.55-5.72
		c-0.16-1.57,0.21-3.17,1.04-4.51c0.97-1.58,2.61-2.36,3.96-3.56c1.79-1.59,2.86-3.85,3.05-6.2c0.46,1.32,1.15,2.54,1.95,3.7
		c0.34,0.5,0.72,1.01,1.11,1.53c1.51,2.28,3.89,6.65,2.45,9.89C46.21,54.01,43.46,56.18,40.51,56.25z"/>
	<g>
		<g>
			<path class="st1" d="M34.99,7.2c-0.03-0.26,0.03-0.49,0.19-0.7c0.16-0.2,0.37-0.32,0.63-0.36c0.26-0.03,0.49,0.03,0.7,0.19
				c0.21,0.16,0.32,0.37,0.36,0.63c0.03,0.26-0.03,0.49-0.2,0.7C36.51,7.88,36.3,8,36.04,8.03c-0.26,0.03-0.49-0.03-0.7-0.19
				C35.14,7.67,35.02,7.46,34.99,7.2z"/>
			<path class="st1" d="M43.23,4.85l0.92,0.12c0.67,0.08,1.12,0.24,1.35,0.45c0.23,0.22,0.32,0.54,0.27,0.98
				c-0.04,0.28-0.14,0.5-0.31,0.66c-0.17,0.16-0.4,0.26-0.7,0.28c0.14,0.04,0.24,0.12,0.31,0.22c0.07,0.1,0.13,0.28,0.18,0.54
				l0.33,1.64l-0.85-0.11l-0.24-1.41c-0.04-0.25-0.1-0.42-0.18-0.5c-0.07-0.08-0.2-0.14-0.38-0.16l-0.25-0.03l-0.25,1.93l-0.8-0.1
				L43.23,4.85z M43.94,5.57l-0.17,1.33L44,6.94c0.32,0.04,0.55,0.02,0.7-0.08c0.14-0.09,0.23-0.27,0.26-0.53
				c0.03-0.22-0.01-0.39-0.12-0.5c-0.11-0.11-0.33-0.19-0.64-0.23L43.94,5.57z"/>
			<path class="st1" d="M48.48,5.74l2.26,0.64l-0.17,0.6L49.1,6.56l-0.35,1.23l1.39,0.39l-0.17,0.6l-1.39-0.39l-0.38,1.34l1.54,0.43
				l-0.17,0.61l-2.33-0.66L48.48,5.74z"/>
			<path class="st1" d="M53.18,7.28l0.76,0.32l-1.75,4.2l-0.76-0.32L53.18,7.28z"/>
			<path class="st1" d="M56.42,8.74l0.82,0.48l-0.45,3.83l1.79-3.04l0.62,0.36l-2.3,3.92l-0.83-0.49L56.51,10l-1.78,3.03l-0.62-0.36
				L56.42,8.74z"/>
			<path class="st1" d="M62.27,12.67l0.72,0.61l-1.83,4.4l-0.66-0.55l0.48-1.04l-1.22-1.02l-0.95,0.64l-0.62-0.52L62.27,12.67z
				 M62.14,13.53l-1.81,1.17l0.93,0.78L62.14,13.53z"/>
			<path class="st1" d="M65.67,15.83l0.54,0.61l-2.9,2.58l0.99,1.11l-0.5,0.44l-1.53-1.72L65.67,15.83z"/>
			<path class="st1" d="M68.64,19.42l0.53,0.81c0.43,0.67,0.6,1.26,0.5,1.78c-0.1,0.52-0.48,0.99-1.12,1.42
				c-0.62,0.4-1.2,0.54-1.75,0.42c-0.55-0.12-1.02-0.5-1.44-1.14l-0.53-0.81L68.64,19.42z M68.57,20.45l-2.76,1.8l0.09,0.13
				c0.25,0.39,0.57,0.62,0.95,0.67c0.38,0.06,0.79-0.06,1.23-0.35c0.47-0.3,0.75-0.63,0.85-0.97s0.02-0.72-0.25-1.12L68.57,20.45z"
				/>
			<path class="st1" d="M72.4,26c0.23,0.53,0.21,1.02-0.04,1.47c-0.25,0.45-0.72,0.82-1.4,1.12c-0.68,0.29-1.28,0.38-1.77,0.25
				c-0.5-0.13-0.86-0.46-1.09-0.98c-0.23-0.53-0.22-1.02,0.03-1.47c0.25-0.45,0.72-0.82,1.4-1.12c0.68-0.29,1.28-0.38,1.78-0.25
				C71.81,25.15,72.18,25.47,72.4,26z M71.82,26.25c-0.12-0.28-0.35-0.43-0.68-0.47c-0.33-0.03-0.76,0.06-1.27,0.28
				c-0.51,0.22-0.87,0.46-1.08,0.72c-0.21,0.26-0.25,0.53-0.13,0.81c0.12,0.28,0.35,0.44,0.68,0.47c0.33,0.03,0.75-0.06,1.26-0.28
				c0.51-0.22,0.87-0.46,1.07-0.72C71.9,26.8,71.94,26.53,71.82,26.25z"/>
			<path class="st1" d="M74.85,35.52l-0.69,0.07c0.04-0.16,0.06-0.3,0.07-0.44c0.01-0.14,0.01-0.26-0.01-0.37
				c-0.03-0.21-0.1-0.37-0.21-0.47c-0.11-0.1-0.25-0.14-0.42-0.11c-0.12,0.02-0.23,0.08-0.32,0.18c-0.09,0.1-0.2,0.31-0.34,0.63
				l-0.03,0.07c-0.3,0.69-0.69,1.08-1.16,1.15c-0.4,0.06-0.75-0.02-1.04-0.25c-0.29-0.23-0.47-0.56-0.54-1
				c-0.03-0.18-0.04-0.36-0.03-0.54c0.01-0.18,0.04-0.35,0.08-0.51l0.7-0.05c-0.06,0.17-0.11,0.34-0.13,0.5
				c-0.02,0.16-0.02,0.31,0,0.46c0.03,0.21,0.11,0.37,0.24,0.48c0.12,0.11,0.27,0.15,0.45,0.12c0.27-0.04,0.52-0.32,0.73-0.82
				c0.03-0.07,0.06-0.13,0.07-0.17c0.16-0.37,0.32-0.64,0.49-0.79c0.16-0.15,0.37-0.25,0.62-0.29c0.38-0.06,0.7,0.02,0.97,0.24
				c0.26,0.22,0.43,0.55,0.5,0.99c0.02,0.15,0.03,0.29,0.03,0.45C74.89,35.22,74.88,35.37,74.85,35.52z"/>
			<path class="st1" d="M75.17,39.23l0.02,0.94l-4.52,1.5l-0.01-0.86l1.1-0.32l-0.03-1.59l-1.11-0.3l-0.01-0.81L75.17,39.23z
				 M74.43,39.69l-2.07-0.6l0.02,1.21L74.43,39.69z"/>
			<path class="st1" d="M74.98,44.02l-0.15,0.94l-3.73,0.96l3.48,0.57l-0.11,0.7l-4.49-0.73l0.16-0.95l3.72-0.95l-3.47-0.57
				l0.11-0.7L74.98,44.02z"/>
			<path class="st1" d="M73.86,49.57l-0.89,2.71l-0.62-0.2l0.32-0.97l-3.7-1.22l0.26-0.78l3.7,1.22l0.32-0.96L73.86,49.57z"/>
			<path class="st1" d="M71.37,56c-0.26,0.51-0.65,0.81-1.16,0.91c-0.51,0.09-1.09-0.03-1.76-0.37c-0.66-0.34-1.1-0.74-1.32-1.21
				c-0.22-0.47-0.2-0.96,0.07-1.47c0.26-0.51,0.65-0.81,1.15-0.91c0.51-0.09,1.09,0.03,1.75,0.37c0.66,0.34,1.1,0.74,1.32,1.21
				C71.65,55,71.63,55.49,71.37,56z M70.81,55.71c0.14-0.27,0.11-0.54-0.07-0.82c-0.19-0.28-0.53-0.54-1.02-0.8
				c-0.5-0.25-0.91-0.38-1.24-0.37c-0.33,0.01-0.57,0.15-0.71,0.42c-0.14,0.27-0.12,0.54,0.07,0.82c0.19,0.28,0.53,0.54,1.02,0.8
				c0.49,0.25,0.91,0.38,1.24,0.37C70.43,56.12,70.67,55.98,70.81,55.71z"/>
			<path class="st1" d="M67.75,61.44L67.21,61c0.14-0.08,0.26-0.17,0.36-0.26c0.1-0.09,0.19-0.18,0.26-0.27
				c0.13-0.17,0.19-0.33,0.18-0.48c-0.01-0.15-0.08-0.27-0.22-0.37c-0.1-0.07-0.22-0.11-0.35-0.1c-0.13,0.01-0.36,0.08-0.69,0.21
				l-0.07,0.03c-0.71,0.28-1.25,0.27-1.64-0.01c-0.33-0.24-0.52-0.55-0.56-0.92c-0.04-0.37,0.07-0.73,0.33-1.09
				c0.11-0.15,0.23-0.28,0.36-0.4c0.14-0.12,0.28-0.22,0.42-0.3l0.53,0.46c-0.17,0.08-0.31,0.16-0.44,0.26
				c-0.13,0.1-0.24,0.21-0.33,0.33c-0.13,0.17-0.19,0.34-0.17,0.51c0.01,0.16,0.09,0.3,0.23,0.4c0.22,0.16,0.59,0.14,1.1-0.06
				c0.07-0.03,0.13-0.05,0.17-0.07c0.38-0.15,0.68-0.22,0.9-0.21c0.22,0.01,0.44,0.09,0.64,0.24c0.31,0.23,0.48,0.51,0.51,0.86
				c0.03,0.34-0.09,0.7-0.35,1.06c-0.09,0.12-0.18,0.23-0.29,0.34C67.98,61.25,67.87,61.35,67.75,61.44z"/>
			<path class="st1" d="M61.92,64.68c0.17,0.2,0.24,0.43,0.22,0.69c-0.02,0.26-0.14,0.47-0.34,0.64c-0.2,0.17-0.43,0.24-0.69,0.22
				c-0.26-0.02-0.47-0.13-0.64-0.33c-0.17-0.2-0.24-0.43-0.21-0.69c0.02-0.26,0.14-0.48,0.34-0.64c0.2-0.17,0.43-0.24,0.69-0.22
				C61.54,64.36,61.75,64.48,61.92,64.68z"/>
			<path class="st1" d="M56.27,71.12l-0.93,0.45c-0.51,0.25-0.94,0.33-1.27,0.24c-0.34-0.09-0.61-0.34-0.81-0.77
				c-0.2-0.43-0.24-0.8-0.1-1.12c0.14-0.32,0.46-0.6,0.95-0.84l0.22-0.11l-0.77-1.61l0.74-0.35L56.27,71.12z M55.26,70.91
				l-0.65-1.36l-0.28,0.14c-0.24,0.12-0.39,0.25-0.44,0.41c-0.05,0.16-0.02,0.36,0.1,0.61c0.12,0.24,0.25,0.39,0.4,0.44
				c0.15,0.05,0.36,0.01,0.63-0.12L55.26,70.91z"/>
			<path class="st1" d="M51.56,73.15l-2.24,0.7l-0.19-0.6l1.46-0.45l-0.38-1.22l-1.37,0.43l-0.19-0.6l1.37-0.43l-0.41-1.33
				l-1.52,0.48l-0.19-0.6l2.31-0.72L51.56,73.15z"/>
			<path class="st1" d="M46.69,74.46l-0.92,0.14c-0.66,0.1-1.14,0.08-1.42-0.06c-0.29-0.14-0.46-0.43-0.53-0.86
				c-0.04-0.28-0.01-0.52,0.11-0.72c0.12-0.2,0.32-0.36,0.59-0.46c-0.15,0-0.27-0.04-0.36-0.12c-0.1-0.08-0.2-0.23-0.33-0.47
				l-0.77-1.48l0.85-0.13l0.62,1.28c0.11,0.23,0.21,0.37,0.31,0.43c0.09,0.06,0.23,0.07,0.4,0.05l0.25-0.04l-0.3-1.92l0.79-0.12
				L46.69,74.46z M45.8,73.97l-0.21-1.33l-0.23,0.04c-0.32,0.05-0.54,0.14-0.65,0.27c-0.11,0.13-0.15,0.32-0.11,0.58
				c0.03,0.22,0.12,0.37,0.26,0.45c0.14,0.07,0.36,0.09,0.68,0.04L45.8,73.97z"/>
			<path class="st1" d="M39.29,75.02l0.03-0.69c0.15,0.06,0.29,0.1,0.42,0.13c0.13,0.03,0.26,0.04,0.37,0.04
				c0.22,0,0.38-0.05,0.49-0.15c0.11-0.09,0.17-0.23,0.17-0.4c0-0.13-0.05-0.24-0.13-0.34c-0.09-0.1-0.28-0.24-0.58-0.42L40,73.16
				c-0.65-0.4-0.97-0.83-0.98-1.31c-0.01-0.41,0.12-0.74,0.39-1c0.27-0.26,0.62-0.39,1.07-0.4c0.18,0,0.36,0.01,0.54,0.05
				c0.18,0.04,0.34,0.09,0.49,0.15l-0.05,0.7c-0.16-0.09-0.32-0.15-0.48-0.19c-0.16-0.04-0.31-0.06-0.46-0.06
				c-0.22,0-0.39,0.06-0.51,0.17c-0.12,0.11-0.18,0.25-0.18,0.43c0,0.28,0.24,0.56,0.71,0.84c0.07,0.04,0.12,0.07,0.16,0.09
				c0.35,0.21,0.58,0.41,0.71,0.59c0.13,0.18,0.2,0.4,0.2,0.65c0.01,0.38-0.12,0.69-0.38,0.92c-0.26,0.23-0.61,0.35-1.05,0.36
				c-0.15,0-0.3-0.01-0.45-0.03C39.59,75.1,39.44,75.07,39.29,75.02z"/>
			<path class="st1" d="M34.85,74.78c-0.57-0.08-0.98-0.35-1.23-0.8c-0.25-0.45-0.33-1.04-0.22-1.78s0.35-1.28,0.72-1.64
				c0.37-0.36,0.84-0.49,1.41-0.41c0.57,0.08,0.98,0.35,1.23,0.8s0.33,1.04,0.22,1.78c-0.11,0.74-0.35,1.28-0.72,1.64
				C35.89,74.72,35.42,74.86,34.85,74.78z M34.95,74.15c0.3,0.04,0.55-0.07,0.75-0.33c0.2-0.27,0.34-0.68,0.42-1.23
				s0.06-0.98-0.05-1.29s-0.32-0.49-0.63-0.53c-0.3-0.04-0.55,0.07-0.75,0.33c-0.2,0.27-0.34,0.67-0.42,1.23
				c-0.08,0.55-0.06,0.98,0.05,1.3C34.44,73.93,34.65,74.11,34.95,74.15z"/>
			<path class="st1" d="M30.48,73.81l-0.9-0.3l-0.37-3.84l-1.11,3.35l-0.68-0.22l1.43-4.32l0.91,0.3l0.36,3.82l1.1-3.34l0.68,0.22
				L30.48,73.81z"/>
			<path class="st1" d="M23.94,71.2l-0.83-0.44l0.87-4.69l0.76,0.4l-0.25,1.11l1.4,0.74l0.79-0.83l0.71,0.38L23.94,71.2z
				 M23.89,70.33l1.52-1.52l-1.07-0.57L23.89,70.33z"/>
			<path class="st1" d="M19.94,68.81l-0.66-0.48l2.3-3.13l-1.2-0.88l0.4-0.54l1.86,1.36L19.94,68.81z"/>
			<path class="st1" d="M14.25,63.9l-1.86-2.16l0.49-0.43l0.66,0.77l2.95-2.54l0.54,0.63l-2.95,2.54l0.66,0.76L14.25,63.9z"/>
			<path class="st1" d="M10.96,59.79l-0.5-0.78C10.1,58.44,9.93,58,9.95,57.68c0.02-0.32,0.21-0.6,0.58-0.83
				c0.24-0.15,0.48-0.21,0.71-0.19c0.23,0.03,0.45,0.15,0.66,0.36c-0.05-0.13-0.07-0.26-0.03-0.38c0.03-0.12,0.13-0.28,0.3-0.49
				l1.05-1.3l0.46,0.72l-0.93,1.08c-0.17,0.19-0.26,0.34-0.27,0.45c-0.02,0.11,0.02,0.24,0.12,0.39l0.13,0.21l1.64-1.04l0.43,0.68
				L10.96,59.79z M11.06,58.78l1.13-0.72l-0.12-0.19c-0.17-0.27-0.34-0.44-0.5-0.49c-0.16-0.05-0.35-0.01-0.57,0.13
				c-0.19,0.12-0.29,0.26-0.31,0.42c-0.01,0.16,0.07,0.37,0.24,0.64L11.06,58.78z"/>
			<path class="st1" d="M7.81,54.1l-0.37-0.87l3.62-3.1l0.34,0.79l-0.89,0.71l0.62,1.46l1.14-0.14l0.32,0.74L7.81,54.1z M8.32,53.39
				l2.14-0.23l-0.48-1.12L8.32,53.39z"/>
			<path class="st1" d="M6.23,49.78l-0.22-0.79l4.38-1.22l0.22,0.79L6.23,49.78z"/>
			<path class="st1" d="M5.38,46.32l-0.13-0.94l3.28-2.02l-3.49,0.48l-0.1-0.71l4.5-0.62l0.13,0.95l-3.27,2l3.48-0.48l0.1,0.71
				L5.38,46.32z"/>
			<path class="st1" d="M4.81,40.32l0.05-2.35l0.63,0.01l-0.03,1.53l1.27,0.03l0.03-1.44l0.63,0.01l-0.03,1.44l1.39,0.03l0.03-1.6
				l0.63,0.01l-0.05,2.42L4.81,40.32z"/>
			<path class="st1" d="M5.11,35.3l0.15-0.92c0.11-0.66,0.28-1.11,0.51-1.33c0.23-0.23,0.55-0.3,0.99-0.23
				c0.28,0.05,0.5,0.16,0.65,0.33c0.15,0.18,0.24,0.41,0.25,0.71c0.05-0.14,0.12-0.24,0.23-0.31c0.1-0.07,0.29-0.12,0.55-0.16
				l1.65-0.26l-0.14,0.85l-1.41,0.19c-0.25,0.03-0.42,0.09-0.51,0.16c-0.09,0.07-0.14,0.19-0.17,0.37L7.8,34.93l1.92,0.32
				l-0.13,0.79L5.11,35.3z M5.86,34.61l1.33,0.22l0.04-0.23c0.05-0.32,0.04-0.55-0.05-0.7c-0.09-0.15-0.26-0.24-0.52-0.28
				c-0.22-0.04-0.39,0-0.51,0.1c-0.11,0.11-0.2,0.32-0.25,0.63L5.86,34.61z"/>
			<path class="st1" d="M7.27,26.95l0.93-2.15l0.58,0.25l-0.61,1.4l1.17,0.51l0.57-1.32l0.58,0.25L9.92,27.2l1.27,0.55l0.64-1.46
				l0.58,0.25l-0.96,2.22L7.27,26.95z"/>
			<path class="st1" d="M11.24,19.59l0.58-0.75l3.74,0.94l-2.78-2.17l0.44-0.56l3.59,2.79l-0.59,0.76l-3.72-0.94l2.77,2.16
				l-0.44,0.56L11.24,19.59z"/>
			<path class="st1" d="M15.14,14.97l0.6-0.55l1.97,2.16c0.26,0.28,0.49,0.45,0.68,0.49c0.19,0.04,0.38-0.02,0.58-0.2
				c0.19-0.18,0.28-0.36,0.25-0.55c-0.03-0.19-0.17-0.43-0.43-0.72l-1.97-2.16l0.58-0.53L19.31,15c0.41,0.45,0.62,0.87,0.63,1.25
				c0.01,0.38-0.17,0.75-0.56,1.1c-0.38,0.35-0.77,0.5-1.15,0.46c-0.38-0.04-0.77-0.29-1.19-0.74L15.14,14.97z"/>
			<path class="st1" d="M19.3,11.43l2.37-1.58l0.36,0.54l-0.85,0.57l2.16,3.24l-0.69,0.46l-2.16-3.24l-0.84,0.56L19.3,11.43z"/>
			<path class="st1" d="M23.78,8.66l0.84-0.4c0.61-0.29,1.07-0.4,1.38-0.35c0.31,0.06,0.57,0.28,0.75,0.68
				c0.12,0.26,0.15,0.5,0.1,0.73c-0.06,0.23-0.2,0.43-0.43,0.61c0.14-0.04,0.27-0.03,0.38,0.01c0.11,0.05,0.26,0.17,0.45,0.36
				l1.16,1.2l-0.77,0.37l-0.96-1.05c-0.17-0.19-0.31-0.3-0.42-0.33c-0.11-0.03-0.24-0.01-0.4,0.07l-0.23,0.11l0.83,1.76l-0.73,0.34
				L23.78,8.66z M24.77,8.88l0.58,1.21l0.21-0.1c0.29-0.14,0.47-0.29,0.54-0.44c0.07-0.15,0.05-0.35-0.06-0.59
				c-0.1-0.2-0.22-0.32-0.38-0.35C25.51,8.58,25.29,8.64,25,8.77L24.77,8.88z"/>
			<path class="st1" d="M28.61,6.61l0.78-0.26l1.42,4.32l-0.78,0.26L28.61,6.61z"/>
		</g>
	</g>
</g>
</svg>
