<?xml version="1.0" encoding="utf-8"?>
<!-- Generator: Adobe Illustrator 24.0.1, SVG Export Plug-In . SVG Version: 6.00 Build 0)  -->
<svg version="1.1" id="Camada_1" xmlns="http://www.w3.org/2000/svg" xmlns:xlink="http://www.w3.org/1999/xlink" x="0px" y="0px"
	 viewBox="0 0 400 500" style="enable-background:new 0 0 400 500;" xml:space="preserve">
<style type="text/css">
	.st0{fill:#A8C415;}
</style>
<g>
	<path class="st0" d="M379.71,150.47c-0.9-12.02-1.88-24.03-2.83-36.05c-0.3-3.77-5.17-6.55-8.05-3.27
		c-5.44,6.18-14.2,2.03-19.5-2.12c-6.56-5.13-12.21-10.99-19.62-14.99c-13.65-7.36-29.62-9.89-44.93-7.76
		c-31.17,4.35-55.99,28.53-65.6,57.88c-2.71,8.29-4.14,16.95-4.45,25.66c-4.89-12.25-12.5-23.48-22.24-32.34
		c-12.61-11.47-28.23-18.69-44.15-24.33c-17.85-6.33-36.18-11.43-54.28-16.98c-17.1-5.24-36.68-9.28-50.67-21.13
		c-6.06-5.13-10.81-11.43-13.05-19.11c-1.39-4.76-7.73-3.91-9.03-0.23c-0.21,0.39-0.37,0.83-0.48,1.34
		c-4.87,23.86,5.34,47.91,22.12,64.79c18.22,18.32,43.1,28.08,67.26,35.79c16.09,5.14,34.74,11.49,45.89,25.18
		c14.12,17.34,7.14,42.88-7.43,57.71c-13,13.24-32.86,12.38-49.88,10.79c-18.55-1.74-37.6-3.2-53.23-14.52
		c-2.05-1.48-3.99-3.1-5.81-4.86c-2.77-2.67-8.33-0.82-8.01,3.38c1.11,14.59,10.13,26.14,20.56,35.72
		c10.47,9.61,23.65,18.18,29.48,31.68c3.29,7.62,3.12,16.02,3.08,24.16c-0.04,8.54-0.1,17.09,0.36,25.62
		c0.81,15.01,2.9,30.62,10.27,43.96c12.46,22.55,36.88,35.19,60.65,42.45c21.68,6.62,44.77,9.46,67.41,8.09
		c18.35-1.11,36.89-4.99,53.57-12.9c6.4-2.98,15.78-7.9,24.36-14.48c1.44-1.09,2.83-2.22,4.16-3.39c0.01-0.01,0.01-0.01,0.02-0.02
		c0.47-0.41,0.93-0.82,1.38-1.23c0.03-0.03,0.06-0.05,0.09-0.08l0,0c8.3-7.66,14.3-16.47,18.21-23.37
		c2.23-3.65,4.06-7.46,5.56-11.36c0.05-0.13,0.09-0.24,0.13-0.32c0.02-0.05,0.04-0.09,0.05-0.14c0-0.01,0.02-0.04,0.02-0.04l0,0
		c6.51-17.27,6.56-36.21,5.23-50.03c-0.16-10.35-2.65-21.63-6.35-32.82c-1.46-4.82-3.38-9.82-5.58-14.82
		c-5.76-13.74-12.66-26.6-18.47-36.53l0.11,0.02c-0.21-0.29-0.41-0.59-0.62-0.89c-0.08-0.14-0.17-0.29-0.25-0.43h0c0,0,0,0,0,0
		c-1.64-2.77-3.17-5.3-4.56-7.52c-8.26-15.03-16.86-36.63-16.88-36.69c-3.61-11.02-5.04-18.69-5.14-19.21
		c-0.4-2.92-0.66-5.65-0.8-8.19c-0.01-0.1-0.01-0.2-0.02-0.3c-0.03-0.5-0.04-0.99-0.06-1.48c-0.01-0.21-0.01-0.41-0.02-0.62
		c-0.01-0.41-0.02-0.81-0.02-1.21c0-0.21,0-0.41,0-0.61c0-0.5,0-1,0.01-1.49c0-0.04,0-0.08,0-0.13
		c0.66-29.06,19.57-29.73,23.74-29.52c0.27,0.02,0.54,0.04,0.81,0.06c0,0,0,0,0,0l0,0c20.41,1.87,31.85,17.1,37.91,29.83l0,0
		c0.59,1.25,1.14,2.47,1.63,3.65c2.25,5.66,5.65,17.02,2.28,27.8c-1.35,3.91-3.31,7.57-5.86,10.95c-2.25,2.98,0.9,7.03,4.11,7.05
		c19.25,0.12,32.91-16.98,36.52-34.54C380.95,171.62,380.5,160.97,379.71,150.47z M206.52,397.69
		c-30.42,0.78-58.85-23.73-61.93-54.1c-1.5-14.82,1.97-29.96,9.79-42.63c9.21-14.92,24.66-22.34,37.41-33.64
		c16.91-14.99,27.07-36.42,28.85-58.61c4.35,12.47,10.87,24.04,18.44,34.96c3.25,4.69,6.82,9.52,10.45,14.47
		c14.31,21.57,36.78,62.89,23.2,93.49C260.36,376.48,234.37,396.97,206.52,397.69z"/>
</g>
</svg>
